<svg xmlns="http://www.w3.org/2000/svg" width="17.438" height="17.438" viewBox="0 0 17.438 17.438">
  <path id="Path_695" data-name="Path 695" d="M9-15.469A8.717,8.717,0,0,0,.281-6.75,8.717,8.717,0,0,0,9,1.969,8.717,8.717,0,0,0,17.719-6.75,8.717,8.717,0,0,0,9-15.469ZM11.007-3.161l-3.1-2.254a.425.425,0,0,1-.172-.341v-5.917a.423.423,0,0,1,.422-.422H9.844a.423.423,0,0,1,.422.422v4.841L12.5-5.207a.422.422,0,0,1,.091.591L11.6-3.252A.425.425,0,0,1,11.007-3.161Z" transform="translate(-0.281 15.469)" fill="#2e3c50"/>
</svg>
