<svg xmlns="http://www.w3.org/2000/svg" width="24" height="21" viewBox="0 0 24 21">
  <path id="Path_694" data-name="Path 694" d="M23.25-3H7.5v-.75a.752.752,0,0,0-.75-.75H5.25a.752.752,0,0,0-.75.75V-3H.75A.752.752,0,0,0,0-2.25v1.5A.752.752,0,0,0,.75,0H4.5V.75a.752.752,0,0,0,.75.75h1.5A.752.752,0,0,0,7.5.75V0H23.25A.752.752,0,0,0,24-.75v-1.5A.752.752,0,0,0,23.25-3Zm0-7.5H19.5v-.75a.752.752,0,0,0-.75-.75h-1.5a.752.752,0,0,0-.75.75v.75H.75A.752.752,0,0,0,0-9.75v1.5a.752.752,0,0,0,.75.75H16.5v.75a.752.752,0,0,0,.75.75h1.5a.752.752,0,0,0,.75-.75V-7.5h3.75A.752.752,0,0,0,24-8.25v-1.5A.752.752,0,0,0,23.25-10.5Zm0-7.5H13.5v-.75a.752.752,0,0,0-.75-.75h-1.5a.752.752,0,0,0-.75.75V-18H.75a.752.752,0,0,0-.75.75v1.5A.752.752,0,0,0,.75-15H10.5v.75a.752.752,0,0,0,.75.75h1.5a.752.752,0,0,0,.75-.75V-15h9.75a.752.752,0,0,0,.75-.75v-1.5A.752.752,0,0,0,23.25-18Z" transform="translate(0 19.5)" fill="#2e3c50"/>
</svg>
