<svg xmlns="http://www.w3.org/2000/svg" width="18" height="13.5" viewBox="0 0 18 13.5">
  <path id="Path_699" data-name="Path 699" d="M16.313-11.25H9.563L7.313-13.5H1.688A1.687,1.687,0,0,0,0-11.812V-1.687A1.687,1.687,0,0,0,1.688,0H16.313A1.687,1.687,0,0,0,18-1.687V-9.562A1.687,1.687,0,0,0,16.313-11.25ZM12.938-5.344a.562.562,0,0,1-.562.563H9.844V-2.25a.562.562,0,0,1-.562.563H8.719a.562.562,0,0,1-.562-.562V-4.781H5.625a.562.562,0,0,1-.562-.562v-.562a.562.562,0,0,1,.563-.562H8.156V-9a.562.562,0,0,1,.563-.562h.563A.562.562,0,0,1,9.844-9v2.531h2.531a.562.562,0,0,1,.563.563Z" transform="translate(0 13.5)" fill="#2e3c50"/>
</svg>
