<svg xmlns="http://www.w3.org/2000/svg" width="22.5" height="16.875" viewBox="0 0 22.5 16.875">
  <path id="Path_698" data-name="Path 698" d="M21.938,0H.563A.562.562,0,0,0,0,.563V1.688a.562.562,0,0,0,.563.563H21.938a.562.562,0,0,0,.563-.562V.563A.562.562,0,0,0,21.938,0ZM2.832-3.752a1.16,1.16,0,0,0,.855.377l4.589-.006a2.736,2.736,0,0,0,1.042-.25L19.548-8.823a5.976,5.976,0,0,0,2.356-2.05c.644-1,.714-1.726.46-2.238s-.87-.888-2.048-.965a5.905,5.905,0,0,0-3.033.685l-3.463,1.757L6.13-14.518a.734.734,0,0,0-.35-.107.742.742,0,0,0-.283.068L3.186-13.384a.642.642,0,0,0-.182,1L8.5-8.933,4.868-7.091,2.324-8.373a.743.743,0,0,0-.282-.067.743.743,0,0,0-.283.068L.348-7.656a.643.643,0,0,0-.2.987Z" transform="translate(0 14.625)" fill="#2e3c50"/>
</svg>
