<svg xmlns="http://www.w3.org/2000/svg" width="158" height="44" viewBox="0 0 158 44">
  <g id="Group_8616" data-name="Group 8616" transform="translate(-144 -82)">
    <path id="Subtraction_2" data-name="Subtraction 2" d="M-2190.734-6588l-8.266,0v-27h43v27h-13.075v-9.144a5.473,5.473,0,0,1,1.368-4.049,5.162,5.162,0,0,1,3.78-1.352c.212,0,.624.024,1.26.073v-5.185h-.008a10.121,10.121,0,0,0-3.935.72,6.28,6.28,0,0,0-2.718,2.124v-2.557h-5.364V-6588h-10.152a8.957,8.957,0,0,0,5.04-2.844l-2.988-3.241a6.524,6.524,0,0,1-2.178,1.423,7.473,7.473,0,0,1-2.683.45,6.222,6.222,0,0,1-3.67-1.044,4.58,4.58,0,0,1-1.873-2.844h14.653c.074-.977.108-1.443.108-1.513a10.5,10.5,0,0,0-1.315-5.309,8.975,8.975,0,0,0-3.617-3.511,10.858,10.858,0,0,0-5.148-1.224,10.944,10.944,0,0,0-5.274,1.278,9.5,9.5,0,0,0-3.707,3.564,9.942,9.942,0,0,0-1.35,5.13,9.807,9.807,0,0,0,1.368,5.148,9.4,9.4,0,0,0,3.886,3.544,11.442,11.442,0,0,0,2.859.991Zm7.006-11.377h-9.539a4.612,4.612,0,0,1,1.584-2.954,4.861,4.861,0,0,1,3.2-1.079,4.752,4.752,0,0,1,3.167,1.1,4.671,4.671,0,0,1,1.583,2.935Z" transform="translate(2458 6705)" fill="#0c92ce"/>
    <text id="Travel" transform="translate(144 117)" fill="#2e3c50" font-size="36" font-family="Montserrat-Bold, Montserrat" font-weight="700"><tspan x="0" y="0">Travel</tspan></text>
  </g>
</svg>
