<svg xmlns="http://www.w3.org/2000/svg" width="18" height="18" viewBox="0 0 18 18">
  <path id="Path_696" data-name="Path 696" d="M17.736-9.7l-1.273-1.28a.9.9,0,0,0-1.273,0L6.75-2.5,2.809-6.459a.9.9,0,0,0-1.273,0L.264-5.179a.909.909,0,0,0,0,1.28l5.85,5.884a.9.9,0,0,0,1.273,0L17.736-8.424A.909.909,0,0,0,17.736-9.7ZM5.856-5.811a.629.629,0,0,0,.886.006L14.2-13.2a.629.629,0,0,0,.006-.886l-1.475-1.481a.629.629,0,0,0-.886-.006L6.318-10.083,3.919-12.5a.628.628,0,0,0-.886-.006L1.552-11.039a.628.628,0,0,0-.006.886Z" transform="translate(0 15.75)" fill="#2e3c50"/>
</svg>
