<svg xmlns="http://www.w3.org/2000/svg" width="22.5" height="18" viewBox="0 0 22.5 18">
  <path id="Path_697" data-name="Path 697" d="M21.938,0H.563A.562.562,0,0,0,0,.563V1.688a.562.562,0,0,0,.563.563H21.938a.562.562,0,0,0,.563-.562V.563A.562.562,0,0,0,21.938,0ZM1.575-8.52,4.7-5.707a2.611,2.611,0,0,0,.9.49L15.7-2.463a5.375,5.375,0,0,0,2.848.048c1.043-.291,1.527-.746,1.661-1.255s-.061-1.15-.822-1.932A5.436,5.436,0,0,0,16.9-7.009L13.47-7.943,9.942-14.688a.584.584,0,0,0-.41-.419L7.244-15.73a.581.581,0,0,0-.728.578L8.2-9.379l-3.593-.979-.97-2.386a.581.581,0,0,0-.387-.349l-1.4-.381a.581.581,0,0,0-.728.558l.008,3.578A1.212,1.212,0,0,0,1.575-8.52Z" transform="translate(0 15.75)" fill="#2e3c50"/>
</svg>
